<svg width="39" height="88" viewBox="0 0 39 88" fill="none" xmlns="http://www.w3.org/2000/svg">
<path d="M2.96 1.99999V-5.72205e-06H0.96V1.99999H2.96ZM2.96 15.08H0.96V17.08H2.96V15.08ZM20.72 15.08H22.72V13.08H20.72V15.08ZM20.72 86H18.72V88H20.72V86ZM36.32 86V88H38.32V86H36.32ZM36.32 1.99999H38.32V-5.72205e-06H36.32V1.99999ZM0.96 1.99999V15.08H4.96V1.99999H0.96ZM2.96 17.08H20.72V13.08H2.96V17.08ZM18.72 15.08V86H22.72V15.08H18.72ZM20.72 88H36.32V84H20.72V88ZM38.32 86V1.99999H34.32V86H38.32ZM36.32 -5.72205e-06H2.96V3.99999H36.32V-5.72205e-06Z" fill="#F47920" fill-opacity="0.4"/>
</svg>
