<svg width="71" height="90" viewBox="0 0 71 90" fill="none" xmlns="http://www.w3.org/2000/svg">
<path d="M28.52 74.8L27.1411 73.3514L23.5181 76.8H28.52V74.8ZM50.96 53.44L49.5916 51.9814L49.5863 51.9864L49.5811 51.9914L50.96 53.44ZM2.96 16.72L1.35211 15.5306L0.18486 17.1085L1.74058 18.3052L2.96 16.72ZM13.88 25.12L12.6606 26.7052L14.2352 27.9165L15.457 26.3501L13.88 25.12ZM39.56 45.88L40.9372 47.3303L40.942 47.3257L39.56 45.88ZM6.2 77.56L4.82278 76.1097L4.2 76.7011V77.56H6.2ZM6.2 88H4.2V90H6.2V88ZM68.12 88V90H70.12V88H68.12ZM68.12 74.8H70.12V72.8H68.12V74.8ZM29.8989 76.2486L52.3389 54.8886L49.5811 51.9914L27.1411 73.3514L29.8989 76.2486ZM52.3284 54.8986C58.2573 49.3364 61.9222 44.5508 64.0901 40.0061C66.2751 35.4258 66.88 31.2144 66.88 26.92H62.88C62.88 30.7856 62.3449 34.3742 60.4799 38.2839C58.5978 42.2292 55.3027 46.6236 49.5916 51.9814L52.3284 54.8986ZM66.88 26.92C66.88 18.9015 63.686 12.285 57.9683 7.71738C52.2991 3.18855 44.3154 0.799995 34.88 0.799995V4.8C43.6846 4.8 50.7009 7.03144 55.4717 10.8426C60.194 14.615 62.88 20.0585 62.88 26.92H66.88ZM34.88 0.799995C20.616 0.799995 8.30014 6.13788 1.35211 15.5306L4.56789 17.9094C10.5799 9.7821 21.544 4.8 34.88 4.8V0.799995ZM1.74058 18.3052L12.6606 26.7052L15.0994 23.5347L4.17942 15.1347L1.74058 18.3052ZM15.457 26.3501C19.6807 20.9351 25.8785 18.36 33.56 18.36V14.36C24.9215 14.36 17.4393 17.3049 12.303 23.8899L15.457 26.3501ZM33.56 18.36C38.474 18.36 41.8636 19.4227 43.9872 21.107C46.0367 22.7325 47.16 25.1374 47.16 28.48H51.16C51.16 24.1426 49.6433 20.4875 46.4728 17.973C43.3764 15.5173 38.966 14.36 33.56 14.36V18.36ZM47.16 28.48C47.16 30.5733 46.8463 32.6588 45.6273 35.1233C44.3861 37.6326 42.1594 40.6286 38.178 44.4342L40.942 47.3257C45.1206 43.3314 47.6939 39.9674 49.2127 36.8967C50.7537 33.7812 51.16 31.0667 51.16 28.48H47.16ZM38.1828 44.4297L4.82278 76.1097L7.57722 79.0103L40.9372 47.3303L38.1828 44.4297ZM4.2 77.56V88H8.2V77.56H4.2ZM6.2 90H68.12V86H6.2V90ZM70.12 88V74.8H66.12V88H70.12ZM68.12 72.8H28.52V76.8H68.12V72.8Z" fill="#F47920" fill-opacity="0.4"/>
</svg>
