<svg width="70" height="90" viewBox="0 0 70 90" fill="none" xmlns="http://www.w3.org/2000/svg">
<path d="M44.04 36.68L42.5098 35.3922L40.1505 38.1956L43.7845 38.6636L44.04 36.68ZM64.44 12.44L65.9702 13.7278L66.44 13.1696V12.44H64.44ZM64.44 1.99999H66.44V-5.72205e-06H64.44V1.99999ZM7.2 1.99999V-5.72205e-06H5.2V1.99999H7.2ZM7.2 15.08H5.2V17.08H7.2V15.08ZM45.36 15.08L46.8905 16.3675L49.6561 13.08H45.36V15.08ZM26.28 37.76L24.7495 36.4725L24.28 37.0306V37.76H26.28ZM26.28 48.44H24.28V50.44H26.28V48.44ZM9.84 65.36L11.1264 63.8286L9.26785 62.2674L8.09087 64.3902L9.84 65.36ZM3.12 77.48L1.37087 76.5102L0.544205 78.0011L1.88543 79.0535L3.12 77.48ZM45.5702 37.9678L65.9702 13.7278L62.9098 11.1522L42.5098 35.3922L45.5702 37.9678ZM66.44 12.44V1.99999H62.44V12.44H66.44ZM64.44 -5.72205e-06H7.2V3.99999H64.44V-5.72205e-06ZM5.2 1.99999V15.08H9.2V1.99999H5.2ZM7.2 17.08H45.36V13.08H7.2V17.08ZM43.8295 13.7925L24.7495 36.4725L27.8105 39.0475L46.8905 16.3675L43.8295 13.7925ZM24.28 37.76V48.44H28.28V37.76H24.28ZM26.28 50.44H33.96V46.44H26.28V50.44ZM33.96 50.44C40.112 50.44 44.1824 51.6381 46.6683 53.4586C49.0535 55.2053 50.2 57.6849 50.2 60.92H54.2C54.2 56.5951 52.5865 52.8347 49.0317 50.2314C45.5776 47.7019 40.528 46.44 33.96 46.44V50.44ZM50.2 60.92C50.2 64.1822 48.8547 66.7583 46.332 68.5851C43.7385 70.4632 39.7591 71.64 34.44 71.64V75.64C40.2809 75.64 45.1815 74.3568 48.678 71.8249C52.2453 69.2417 54.2 65.4578 54.2 60.92H50.2ZM34.44 71.64C25.3719 71.64 16.7235 68.5302 11.1264 63.8286L8.55362 66.8914C14.9565 72.2698 24.5481 75.64 34.44 75.64V71.64ZM8.09087 64.3902L1.37087 76.5102L4.86913 78.4498L11.5891 66.3298L8.09087 64.3902ZM1.88543 79.0535C10.1116 85.5079 22.4564 89.2 34.68 89.2V85.2C23.1436 85.2 11.7284 81.6922 4.35457 75.9065L1.88543 79.0535ZM34.68 89.2C46.314 89.2 55.1376 86.0406 61.0811 80.8116C67.0402 75.5688 69.92 68.4028 69.92 60.8H65.92C65.92 67.3572 63.4598 73.3912 58.4389 77.8084C53.4024 82.2394 45.606 85.2 34.68 85.2V89.2ZM69.92 60.8C69.92 54.0579 67.7589 48.0224 63.37 43.4025C58.993 38.7952 52.5588 35.7606 44.2955 34.6964L43.7845 38.6636C51.3612 39.6394 56.867 42.3648 60.47 46.1575C64.0611 49.9376 65.92 54.9421 65.92 60.8H69.92Z" fill="#F47920" fill-opacity="0.4"/>
</svg>
