<svg width="291" height="285" viewBox="0 0 291 285" fill="none" xmlns="http://www.w3.org/2000/svg">
<g opacity="0.3">
<path d="M78.4422 60.7998C74.0148 61.0453 69.6557 62.8591 66.2721 66.2424C58.977 73.538 58.977 85.3659 66.2721 92.6615C69.9202 96.309 74.7007 98.1331 79.4824 98.1331C84.2629 98.1331 89.0446 96.309 92.6916 92.6615C96.0742 89.2783 97.8891 84.9198 98.1341 80.4913L78.4422 60.7998ZM74.2416 85.6934H70.5422L74.4638 79.1566L76.2639 82.1552L74.2416 85.6934ZM76.0337 85.6934L82.2475 74.8203L88.4614 85.6934H76.0337ZM94.1533 78.7117C92.9571 78.5049 91.7858 78.1699 90.6499 77.7096C88.5274 76.8483 86.6213 75.583 84.9864 73.9482C83.2318 72.1942 81.908 70.1371 81.049 67.834C80.6775 66.836 80.4018 65.8163 80.2219 64.7801L94.1533 78.7117ZM95.1651 86.3429C94.3106 88.2883 93.1074 90.0439 91.591 91.561C89.956 93.1958 88.05 94.4616 85.9275 95.3225C83.8744 96.1547 81.7075 96.5762 79.4824 96.5762C77.2573 96.5762 75.0892 96.1547 73.0373 95.3225C70.9136 94.4616 69.0087 93.1958 67.3737 91.561C65.7389 89.9254 64.4719 88.02 63.6117 85.8968C62.779 83.8448 62.3574 81.6767 62.3574 79.4522C62.3574 77.227 62.7789 75.059 63.6117 73.007C64.4719 70.8839 65.7389 68.9783 67.3737 67.3429C68.8902 65.8259 70.6459 64.6239 72.5906 63.77C74.2632 63.0357 76.0268 62.5783 77.8475 62.4057L78.4512 63.0095C78.6598 66.3562 79.7649 69.658 81.7667 72.5234L77.148 80.6058L74.4638 76.1305L67.7919 87.2503H73.3517H81.1355H91.1433L84.5125 75.6469C87.7641 78.6137 91.8087 80.2253 95.9238 80.4821L96.5288 81.0872C96.3568 82.9066 95.8988 84.6714 95.1651 86.3429Z" fill="white"/>
<path d="M238.801 53.3335L229.683 64.0092L228.852 64.982L219.733 75.6577L239.266 92.3405L248.384 81.6648L249.215 80.6919L258.333 70.0162L238.801 53.3335ZM239.129 90.6131L221.46 75.5219L229.783 65.7775L247.452 80.8687L239.129 90.6131ZM230.614 64.8046L238.937 55.0602L256.606 70.1515L248.283 79.8958L230.614 64.8046L230.614 64.8046Z" fill="white"/>
<path d="M241.091 64.0362L241.496 61.6114L235.701 63.5561L237.694 65.2587L240.485 67.6427L244.071 70.7052L245.651 62.3995L241.091 64.0362ZM238.14 64.0288L239.954 63.4171L239.77 64.5138L239.02 64.7806L238.14 64.0288ZM240.092 65.696L244.049 64.2751L243.264 68.4052L240.092 65.696Z" fill="white"/>
<path d="M242.813 71.2383L235.371 64.8817C235.116 64.6641 234.727 64.6947 234.507 64.9522C234.29 65.2063 234.321 65.5954 234.575 65.813L242.018 72.1696C242.275 72.3895 242.66 72.3555 242.877 72.1013C243.097 71.8438 243.071 71.4582 242.813 71.2383Z" fill="white"/>
<path d="M226.234 75.5795C225.979 75.3618 225.593 75.3894 225.373 75.6469C225.153 75.9044 225.187 76.2901 225.441 76.5077C225.699 76.7276 226.085 76.7005 226.305 76.4429C226.525 76.1854 226.492 75.7994 226.234 75.5795Z" fill="white"/>
<path d="M228.093 77.1678C227.839 76.9507 227.452 76.9782 227.232 77.2358C227.012 77.4933 227.046 77.8789 227.3 78.096C227.558 78.316 227.944 78.2888 228.164 78.0312C228.384 77.7737 228.35 77.3877 228.093 77.1678Z" fill="white"/>
<path d="M229.956 78.759C229.698 78.5391 229.312 78.5666 229.092 78.8241C228.872 79.0817 228.905 79.4673 229.163 79.6873C229.417 79.9043 229.803 79.8772 230.023 79.6196C230.243 79.362 230.21 78.9761 229.956 78.759Z" fill="white"/>
<path d="M231.815 80.3469C231.558 80.127 231.171 80.1545 230.951 80.412C230.731 80.6695 230.765 81.0552 231.022 81.2752C231.276 81.4916 231.662 81.4645 231.882 81.2069C232.102 80.9493 232.068 80.5634 231.815 80.3469Z" fill="white"/>
<path d="M233.676 81.9359C233.418 81.716 233.034 81.7458 232.814 82.0033C232.594 82.2609 232.625 82.6442 232.883 82.8641C233.14 83.0841 233.522 83.0534 233.742 82.7959C233.962 82.5383 233.933 82.1558 233.676 81.9359Z" fill="white"/>
<path d="M231.351 78.3374L234.937 81.3998L236.514 73.0972L231.954 74.7343L232.362 72.3061L226.567 74.2508L228.56 75.9534L231.351 78.3374L231.351 78.3374ZM234.127 79.103L230.955 76.3938L234.912 74.9732L234.127 79.103ZM229.003 74.7266L230.817 74.1153L230.636 75.2086L229.884 75.4785L229.003 74.7267L229.003 74.7266Z" fill="white"/>
<path d="M252.345 72.9854C252.318 72.6494 252.022 72.3969 251.686 72.4233L248.637 72.6664L248.541 71.4462C248.514 71.1102 248.219 70.8576 247.883 70.8841C247.547 70.9105 247.297 71.2028 247.32 71.5422L247.464 73.3691C247.493 73.7075 247.786 73.9577 248.122 73.9312L251.782 73.6435C252.118 73.6171 252.371 73.3214 252.345 72.9854Z" fill="white"/>
<path d="M238.395 83.9875C238.425 84.3258 238.715 84.5792 239.054 84.5496L239.056 84.5519L240.274 84.4536L240.37 85.6738C240.396 86.0098 240.692 86.2624 241.028 86.2359C241.364 86.2095 241.614 85.9169 241.59 85.5778L241.491 84.3606L242.712 84.2646C243.048 84.2382 243.3 83.9425 243.273 83.6068C243.247 83.2709 242.951 83.0183 242.615 83.0447L241.395 83.1404L241.302 81.9229L241.299 81.9205C241.273 81.5846 240.98 81.3343 240.641 81.3584C240.305 81.3845 240.053 81.6802 240.079 82.0162L240.175 83.2365L238.958 83.3294C238.619 83.3589 238.369 83.6515 238.395 83.9875Z" fill="white"/>
<path d="M216.776 188.69L217.517 186.833L217.764 186.214L218.011 185.596C216.32 184.922 215.5 182.985 216.18 181.279C216.861 179.573 218.79 178.734 220.48 179.409L220.727 178.79L220.974 178.171L221.715 176.315L220.268 165.696L212.537 165.48L212.281 169.681L198.182 164.054L191.268 181.379L205.367 187.006L202.66 190.229L208.415 195.394L216.776 188.69ZM204.5 190.091L206.374 187.862L207.563 186.447L205.861 185.768L192.989 180.63L198.915 165.781L211.788 170.918L213.489 171.597L213.601 169.754L213.777 166.846L219.11 166.995L220.358 176.154L219.676 177.862C217.691 177.687 215.737 178.828 214.954 180.789C214.171 182.752 214.803 184.924 216.363 186.164L215.681 187.871L208.47 193.655L204.5 190.091Z" fill="white"/>
<path d="M206.501 176.278L208.835 175.89L205.294 171.197L204.354 173.554L203.037 176.854L201.343 181.097L209.386 179.934L206.501 176.278ZM205.648 173.872L206.453 174.938L205.562 175.087L205.297 174.751L205.648 173.872L205.648 173.872ZM204.728 176.176L206.916 178.948L203.42 179.454L204.728 176.176Z" fill="white"/>
<path d="M160.884 235.293L155.532 240.477C155.286 240.715 155.28 241.109 155.517 241.354C155.757 241.601 156.15 241.608 156.396 241.369L161.748 236.186C161.994 235.947 162 235.554 161.761 235.307C161.523 235.062 161.13 235.055 160.884 235.293Z" fill="white"/>
<path d="M154.668 239.585L156.452 237.857C156.698 237.619 156.705 237.226 156.467 236.979C156.228 236.733 155.835 236.727 155.589 236.966L153.805 238.694C153.559 238.932 153.552 239.325 153.791 239.571C154.029 239.817 154.422 239.823 154.668 239.585Z" fill="white"/>
<path d="M167.548 226.635L165.402 226.062L166.655 231.435L168.354 229.789L170.732 227.486L173.791 224.524L166.464 222.399L167.548 226.635ZM167.366 229.017L167.082 227.796L167.899 228.014L167.999 228.403L167.366 229.017ZM169.026 227.409L168.206 224.198L171.389 225.12L169.026 227.409Z" fill="white"/>
<path d="M163.896 211.631L143.38 231.501C143.133 231.739 143.127 232.133 143.365 232.379L155.46 244.867C155.698 245.113 156.092 245.119 156.338 244.881L176.854 225.011C177.1 224.773 177.106 224.38 176.868 224.134L164.773 211.646C164.534 211.399 164.141 211.393 163.896 211.631ZM163.438 213.803L159.707 227.522C159.678 227.631 159.506 227.798 159.396 227.824L145.562 231.117L163.438 213.803ZM155.92 243.556L145.193 232.481L159.683 229.032C159.958 228.966 160.226 228.807 160.445 228.595C160.663 228.383 160.832 228.12 160.906 227.848L164.815 213.473L175.543 224.551L155.92 243.556Z" fill="white"/>
<path d="M118.401 13.5757C118.401 6.07782 112.352 0 104.889 0C102.429 0 100.122 0.661189 98.1339 1.81652C96.1461 0.661269 93.8391 0 91.3787 0C83.916 0 77.8672 6.07782 77.8672 13.5757C77.8672 18.6412 80.6281 23.0579 84.72 25.3908C85.5228 32.1181 91.2217 37.3333 98.1339 37.3333C105.046 37.3333 110.745 32.1181 111.548 25.3908C115.64 23.0579 118.401 18.6412 118.401 13.5757ZM86.5755 26.2677C88.0685 26.8382 89.6865 27.1514 91.3787 27.1514C93.8391 27.1514 96.1461 26.4902 98.1339 25.3349C100.122 26.4901 102.429 27.1514 104.889 27.1514C106.581 27.1514 108.199 26.8381 109.692 26.2677C109.538 26.9892 109.316 27.6952 109.028 28.3806C108.433 29.795 107.579 31.066 106.493 32.1572C105.407 33.2485 104.143 34.1055 102.735 34.704C101.278 35.323 99.7307 35.6368 98.1338 35.6368C96.5368 35.6368 94.9894 35.323 93.5322 34.704C92.1245 34.1056 90.8603 33.2485 89.7743 32.1572C88.6882 31.066 87.8347 29.7951 87.2396 28.3806C86.9516 27.6952 86.7301 26.9892 86.5755 26.2677ZM109.943 24.3176C109.794 24.3884 109.643 24.4568 109.491 24.522C108.035 25.1409 106.486 25.4548 104.889 25.4548C103.292 25.4548 101.745 25.141 100.289 24.522C100.094 24.4393 99.904 24.3517 99.7147 24.2597C102.761 21.8559 104.754 18.1651 104.882 14.002C105.454 14.4028 105.994 14.8553 106.493 15.358C107.579 16.4493 108.433 17.7201 109.028 19.134C109.644 20.5975 109.956 22.153 109.956 23.7576C109.956 23.9453 109.952 24.1317 109.943 24.3176ZM103.187 13.0158C103.196 13.2016 103.201 13.388 103.201 13.5757C103.201 15.1803 102.889 16.7358 102.273 18.1987C101.677 19.6131 100.824 20.884 99.7382 21.9753C99.2397 22.4762 98.7041 22.9268 98.1338 23.3258C97.5635 22.9268 97.0279 22.4762 96.5294 21.9753C95.4433 20.884 94.5911 19.6132 93.9948 18.1987C93.3789 16.7358 93.0672 15.1803 93.0672 13.5757C93.0672 13.388 93.0721 13.2016 93.0808 13.0158C93.2292 12.9449 93.3801 12.8766 93.5323 12.8113C94.9894 12.1924 96.5369 11.8785 98.1339 11.8785C99.7308 11.8785 101.278 12.1923 102.735 12.8113C102.888 12.8766 103.038 12.9449 103.187 13.0158ZM98.1339 10.1819C96.4429 10.1819 94.8237 10.4952 93.3319 11.0656C93.4865 10.3441 93.7067 9.63815 93.9949 8.9527C94.5911 7.53829 95.4435 6.26738 96.5295 5.17608C97.0281 4.67518 97.5636 4.22463 98.1339 3.82562C98.7042 4.22463 99.2398 4.67518 99.7383 5.17608C100.824 6.26738 101.677 7.53821 102.273 8.9527C102.561 9.63815 102.783 10.3441 102.936 11.0656C101.444 10.4951 99.8248 10.1819 98.1339 10.1819ZM91.3862 14.002C91.5135 18.1651 93.5063 21.8559 96.5531 24.2597C96.3638 24.3517 96.1733 24.4393 95.9791 24.522C94.5231 25.1409 92.9757 25.4548 91.3788 25.4548C89.7819 25.4548 88.2332 25.141 86.7772 24.522C86.6251 24.4568 86.4742 24.3884 86.3245 24.3176C86.3159 24.1317 86.3121 23.9453 86.3121 23.7576C86.3121 22.153 86.6239 20.5975 87.2399 19.1346C87.8349 17.7202 88.6884 16.4493 89.7745 15.358C90.2741 14.8553 90.8134 14.4028 91.3862 14.002ZM96.553 2.89167C93.8032 5.06058 91.9131 8.2772 91.4764 11.9425C87.4996 14.2096 84.7807 18.4454 84.6298 23.3313C84.0571 22.9305 83.519 22.4781 83.0192 21.9753C81.9319 20.884 81.0796 19.6132 80.4846 18.1987C79.8686 16.7358 79.5557 15.1803 79.5557 13.5757C79.5557 11.9711 79.8686 10.4156 80.4846 8.9527C81.0796 7.53829 81.9318 6.26738 83.0192 5.17608C84.1053 4.08478 85.3695 3.22783 86.7772 2.62933C88.2331 2.01038 89.7818 1.69648 91.3787 1.69648C92.9757 1.69648 94.5231 2.0103 95.979 2.62933C96.1732 2.71205 96.3638 2.79963 96.553 2.89167ZM115.783 8.9527C116.399 10.4156 116.712 11.9711 116.712 13.5757C116.712 15.1803 116.399 16.7358 115.783 18.1987C115.188 19.6131 114.336 20.884 113.249 21.9753C112.749 22.4781 112.211 22.9305 111.638 23.3313C111.487 18.4454 108.768 14.2096 104.791 11.9425C104.355 8.2772 102.465 5.0605 99.7147 2.89167C99.904 2.79971 100.094 2.71205 100.289 2.6294C101.745 2.01045 103.292 1.69656 104.889 1.69656C106.486 1.69656 108.035 2.01038 109.491 2.6294C110.898 3.22783 112.162 4.08486 113.249 5.17616C114.336 6.26738 115.188 7.53829 115.783 8.9527Z" fill="white"/>
<path d="M1.1178 43.6338L8.95279 49.0237L12.3108 51.3338L20.1466 56.7243L39.7464 30.63L18.4795 15.9998L1.1178 43.6338ZM2.96105 43.2526L4.40834 40.9503L11.2628 45.6658L9.7229 47.9043L2.96105 43.2526ZM10.8428 48.6747L13.9227 44.1977L15.0417 44.9675L11.9618 49.4445L10.8428 48.6747ZM13.0809 50.2143L14.6208 47.9758L21.4761 52.6918L19.8427 54.866L13.0809 50.2143ZM37.8094 30.9473L22.293 51.6045L15.3909 46.8564L16.9309 44.6179C17.1435 44.3088 17.0657 43.8863 16.7567 43.6737C16.4476 43.4611 16.0245 43.5389 15.8118 43.848C16.0245 43.5389 15.9459 43.1159 15.6368 42.9033C15.3277 42.6907 14.9054 42.7691 14.6928 43.0782C14.9054 42.7691 14.8268 42.3461 14.5178 42.1335C14.2087 41.9209 13.7855 41.9987 13.5729 42.3078L12.033 44.5463L5.13175 39.7987L18.8757 17.9222L37.8094 30.9473Z" fill="white"/>
<path d="M17.3813 37.2307L23.3069 34.3757L23.0988 37.7085L30.651 34.2658L27.7194 32.249L23.6153 29.4257L18.3382 25.7954L17.3813 37.2307ZM27.9032 34.0253L24.5955 35.5328L24.7095 33.6992L26.3094 32.929L27.9032 34.0254L27.9032 34.0253ZM25.0199 32.0418L18.9333 34.9746L19.4968 28.2423L25.0199 32.0418Z" fill="white"/>
<path d="M225.325 30.7023L210.341 12.1366C210.162 11.9143 209.835 11.8791 209.612 12.059L196.697 22.4823C196.474 22.6621 196.44 22.9888 196.619 23.2111L202.025 29.9092L199.214 31.3805L199.084 31.2191C198.904 30.9968 198.577 30.9619 198.354 31.1418C198.132 31.3217 198.097 31.6484 198.276 31.8707L203.489 38.3288C203.668 38.5511 203.995 38.5863 204.217 38.4064C204.44 38.2265 204.475 37.8996 204.296 37.6773L204.165 37.5153L206.196 35.0774L211.603 41.7767C211.783 41.999 212.109 42.0342 212.332 41.8543L225.247 31.4311C225.47 31.2512 225.504 30.9245 225.325 30.7023ZM199.879 32.2041L202.686 30.7348L205.53 34.2564L203.501 36.6924L199.878 32.2042L199.879 32.2041ZM224.191 30.9494L213.698 39.418L199.367 21.6611L209.86 13.1925L224.191 30.9494ZM204.918 31.8426L197.753 22.9642L198.56 22.3127L205.725 31.1911L212.891 40.0695L212.084 40.7211L204.918 31.8426Z" fill="white"/>
<path d="M205.646 31.9201C205.869 31.7402 205.904 31.4141 205.724 31.1913C205.544 30.9684 205.218 30.9338 204.995 31.1137C204.772 31.2936 204.737 31.6199 204.917 31.8428C205.096 32.0656 205.423 32.1 205.646 31.9201Z" fill="white"/>
<path d="M209.222 15.7058L218.993 27.8122C218.993 27.8122 218.993 27.8128 218.994 27.8133C219.173 28.0356 219.5 28.0708 219.723 27.8909C219.946 27.711 219.981 27.3841 219.801 27.1618L210.029 15.0543C209.849 14.8308 209.522 14.7959 209.299 14.9758C209.076 15.1557 209.042 15.4824 209.222 15.7058Z" fill="white"/>
<path d="M207.609 17.0093L212.82 23.4657C212.821 23.4663 212.821 23.4663 212.821 23.4663C213 23.6892 213.327 23.7237 213.549 23.5438C213.772 23.3639 213.807 23.0378 213.627 22.815L208.416 16.358C208.236 16.1345 207.909 16.0994 207.686 16.2793C207.463 16.4591 207.429 16.7858 207.609 17.0093Z" fill="white"/>
<path d="M205.992 18.3123L213.157 27.1901C213.157 27.1907 213.157 27.1907 213.157 27.1907C213.337 27.4136 213.663 27.4482 213.886 27.2683C214.109 27.0884 214.144 26.7621 213.965 26.5392L206.799 17.6607C206.619 17.4373 206.292 17.4021 206.069 17.582C205.846 17.7621 205.811 18.0888 205.992 18.3123Z" fill="white"/>
<path d="M204.382 19.615L208.942 25.2644C209.122 25.4878 209.449 25.523 209.672 25.3431C209.895 25.1632 209.929 24.8366 209.749 24.6131L205.19 18.9635C205.009 18.74 204.682 18.7051 204.459 18.885C204.237 19.0649 204.202 19.3915 204.382 19.615Z" fill="white"/>
<path d="M202.766 20.9175L211.234 31.4099L211.233 31.4101C211.414 31.6336 211.741 31.6685 211.964 31.4886C212.186 31.3087 212.221 30.9821 212.041 30.7586L203.572 20.2662C203.392 20.0427 203.066 20.0076 202.843 20.1875C202.62 20.3673 202.585 20.694 202.766 20.9175Z" fill="white"/>
<path d="M201.152 22.221L203.757 25.4488C203.937 25.6723 204.264 25.7075 204.487 25.5276C204.71 25.3477 204.745 25.0208 204.564 24.7973L201.959 21.5694C201.779 21.346 201.452 21.3108 201.229 21.4907C201.006 21.6708 200.972 21.9975 201.152 22.221Z" fill="white"/>
<path d="M129.829 163.322L125.775 159.055L121.161 172.932L127.281 171.567L135.849 169.656L146.862 167.199L133.249 152.249L129.829 163.322ZM124.212 170.176L126.632 162.898L129.143 165.541L127.97 169.338L124.212 170.176ZM130.247 168.83L134.138 156.234L143.016 165.982L130.247 168.83Z" fill="white"/>
<path d="M140.042 136.618L139.592 134.599C139.467 134.042 138.925 133.688 138.379 133.81C137.832 133.932 137.491 134.482 137.615 135.04L138.066 137.059L134.111 137.941L133.661 135.922C133.536 135.364 132.994 135.011 132.448 135.133C131.901 135.255 131.56 135.805 131.684 136.363L132.134 138.382L128.181 139.264L127.73 137.245C127.606 136.687 127.063 136.334 126.517 136.456C125.97 136.578 125.629 137.128 125.753 137.686L126.203 139.705L122.249 140.587L121.799 138.568C121.675 138.01 121.132 137.657 120.586 137.779C120.039 137.901 119.697 138.451 119.822 139.009L120.272 141.028L116.318 141.91L115.868 139.89C115.744 139.333 115.2 138.98 114.655 139.102C114.108 139.223 113.766 139.774 113.891 140.331L114.341 142.351L108.41 143.674L118.318 188.095L155.881 179.717L145.973 135.296L140.042 136.618ZM153.463 178.18L119.854 185.676L110.828 145.21L114.782 144.328L115.213 146.263C115.338 146.82 115.881 147.174 116.428 147.052C116.974 146.93 117.315 146.379 117.191 145.822L116.759 143.887L120.713 143.005L121.145 144.94C121.269 145.497 121.812 145.851 122.359 145.729C122.905 145.607 123.246 145.056 123.122 144.499L122.69 142.564L126.644 141.682L127.076 143.617C127.2 144.174 127.743 144.528 128.29 144.406C128.836 144.284 129.177 143.733 129.053 143.176L128.622 141.241L132.575 140.359L133.007 142.294C133.131 142.852 133.674 143.205 134.221 143.083C134.767 142.962 135.108 142.411 134.983 141.853L134.552 139.919L138.507 139.037L138.938 140.971C139.062 141.529 139.605 141.883 140.152 141.76C140.698 141.639 141.039 141.088 140.915 140.53L140.483 138.596L144.438 137.714L153.463 178.18Z" fill="white"/>
<path d="M151.714 58.0637L127.461 79.4026C127.17 79.6588 127.141 80.1026 127.397 80.3938L142.242 97.2651C142.498 97.5563 142.942 97.5843 143.233 97.3281L151.983 89.6292L154.136 93.3477L153.925 93.5332C153.633 93.7894 153.605 94.2337 153.861 94.5248C154.117 94.816 154.561 94.844 154.853 94.5878L163.288 87.1654C163.58 86.9092 163.608 86.466 163.351 86.1749C163.095 85.8837 162.652 85.8546 162.361 86.1108L162.15 86.2963L158.734 83.6895L167.486 75.9892C167.777 75.733 167.805 75.2899 167.549 74.9987L152.704 58.1274C152.448 57.8362 152.005 57.8075 151.714 58.0637ZM155.211 92.4018L153.061 88.6882L157.662 84.6378L161.075 87.2423L155.211 92.4018L155.211 92.4018ZM156.753 64.8545L153.589 67.6378L148.951 62.3657L152.114 59.5824L156.753 64.8545ZM154.517 68.6924L157.681 65.9091L164.175 73.2899L161.012 76.0733L154.517 68.6924ZM147.897 63.2932L159.957 77.0008L140.977 93.7006L128.916 79.993L147.897 63.2932ZM154.431 85.6048L142.833 95.8098L141.905 94.7552L153.504 84.5502L165.103 74.3445L166.031 75.3991L154.431 85.6048Z" fill="white"/>
<path d="M154.495 84.6132C154.238 84.3221 153.795 84.2934 153.503 84.5503C153.212 84.8064 153.184 85.2496 153.44 85.5408C153.697 85.8319 154.14 85.861 154.431 85.6048C154.723 85.348 154.751 84.9044 154.495 84.6132Z" fill="white"/>
<path d="M147.351 80.5923L150.966 77.4115L142.804 74.6151L143.799 79.4593L141.406 78.696L142.53 84.8339L144.539 83.0664L147.351 80.5923ZM144.674 76.7404L148.221 77.9558L145.428 80.4129L144.674 76.7404ZM143.465 82.1403L143.21 80.7456L144.122 81.0368L144.214 81.4818L143.465 82.1403Z" fill="white"/>
<path d="M134.988 78.3903L133.934 79.3179L134.861 80.3725L135.916 79.4449L134.988 78.3903Z" fill="white"/>
<path d="M140.789 73.2883L139.734 74.2158L140.662 75.2704L141.716 74.3429L140.789 73.2883Z" fill="white"/>
<path d="M146.586 68.1855L145.531 69.1138L146.459 70.1684L147.514 69.2401L146.586 68.1855Z" fill="white"/>
<path d="M150.297 72.4033L149.242 73.3315L150.17 74.3857L151.225 73.4575L150.297 72.4033Z" fill="white"/>
<path d="M154.012 76.6211L152.957 77.5493L153.885 78.6039L154.94 77.6757L154.012 76.6211Z" fill="white"/>
<path d="M142.414 86.8259L141.359 87.7534L142.287 88.808L143.341 87.8805L142.414 86.8259Z" fill="white"/>
<path d="M138.699 82.6086L137.645 83.5361L138.572 84.5903L139.626 83.6628L138.699 82.6086Z" fill="white"/>
<path d="M148.21 81.7238L147.156 82.6514L148.084 83.706L149.138 82.7784L148.21 81.7238Z" fill="white"/>
<path d="M200.535 277.128V272.954H194.192V265.6H189.812V272.954H183.469V277.128H189.812V284.8H194.192V277.128H200.535Z" fill="white"/>
</g>
</svg>
