<svg width="69" height="62" viewBox="0 0 69 62" fill="none" xmlns="http://www.w3.org/2000/svg">
<circle cx="28.9827" cy="28.9827" r="28.9827" fill="#F47920" fill-opacity="0.5" style="mix-blend-mode:multiply"/>
<path d="M62.7483 29.8003H49.6243C49.204 29.8003 48.8633 30.1411 48.8633 30.5613C48.8633 30.9816 49.2041 31.3223 49.6243 31.3223H62.7484C63.1688 31.3223 63.5095 30.9816 63.5095 30.5613C63.5095 30.1411 63.1687 29.8003 62.7483 29.8003Z" fill="#1E48AF"/>
<path d="M62.7483 34.3887H49.6243C49.204 34.3887 48.8633 34.7295 48.8633 35.1497C48.8633 35.5699 49.2041 35.9107 49.6243 35.9107H62.7484C63.1688 35.9107 63.5095 35.5699 63.5095 35.1497C63.5095 34.7295 63.1687 34.3887 62.7483 34.3887Z" fill="#1E48AF"/>
<path d="M63.5095 39.7381C63.5095 39.3177 63.1687 38.9771 62.7484 38.9771H49.6243C49.204 38.9771 48.8633 39.3178 48.8633 39.7381C48.8633 40.1583 49.2041 40.4991 49.6243 40.4991H62.7484C63.1687 40.4992 63.5095 40.1584 63.5095 39.7381Z" fill="#1E48AF"/>
<path d="M49.6243 43.5659C49.204 43.5659 48.8633 43.9067 48.8633 44.3269C48.8633 44.7472 49.2041 45.088 49.6243 45.088H56.1863C56.6067 45.088 56.9473 44.7472 56.9473 44.3269C56.9473 43.9067 56.6066 43.5659 56.1863 43.5659H49.6243Z" fill="#1E48AF"/>
<path d="M67.3466 18.9904L59.4998 11.1437C58.8026 10.446 57.8474 10.0405 56.8369 10.0405H31.0156C28.9392 10.0405 27.25 11.7298 27.25 13.8062V21.5982C27.25 22.0185 27.5908 22.3592 28.011 22.3592C28.4313 22.3592 28.7721 22.0184 28.7721 21.5982V13.8062C28.7721 12.5691 29.7785 11.5627 31.0156 11.5627H56.8369C57.0011 11.5627 57.1625 11.5802 57.3204 11.615V18.5459C57.3204 19.9927 58.4974 21.1697 59.9441 21.1697H66.8742C66.9093 21.3285 66.9273 21.4912 66.9273 21.6532V58.2345C66.9273 59.4714 65.9209 60.478 64.6838 60.478H54.4595C55.3494 59.1474 55.2078 57.3264 54.0338 56.1524L47.1142 49.2328C46.6102 48.7288 45.8766 48.5934 45.2473 48.823L43.7575 47.3332C47.9605 41.4967 47.3408 33.4213 42.2007 28.281C36.496 22.5765 27.1362 22.4628 21.318 28.281C15.5607 34.0384 15.5607 43.4063 21.318 49.1637C26.4537 54.2994 34.5368 54.9099 40.3697 50.72L41.86 52.2103C41.6304 52.8396 41.7658 53.5732 42.2699 54.0772L48.6706 60.478H31.0156C29.7786 60.478 28.7721 59.4715 28.7721 58.2345V55.7953C28.7721 55.375 28.4313 55.0343 28.011 55.0343C27.5908 55.0343 27.25 55.3751 27.25 55.7953V58.2345C27.25 60.3108 28.9393 62 31.0156 62H64.6839C66.7602 62 68.4495 60.3107 68.4495 58.2345V21.6532C68.4495 20.6655 68.0576 19.7009 67.3466 18.9904ZM22.3944 48.0873C17.2306 42.9235 17.2306 34.5213 22.3944 29.3573C27.6241 24.1276 36.0176 24.2504 41.1245 29.3573C45.8794 34.1123 46.3224 41.6672 42.1548 46.9307C41.515 47.7386 40.7767 48.4772 39.9679 49.1176C34.738 53.2584 27.1645 52.8574 22.3944 48.0873ZM41.5683 49.7602C41.9987 49.3771 42.4092 48.9674 42.8 48.5283L44.0533 49.7816L42.8186 51.0164L41.5654 49.763C41.5664 49.762 41.5673 49.761 41.5683 49.7602ZM50.2657 59.9204L43.3462 53.0009C43.247 52.9017 43.2468 52.7407 43.3462 52.6412L43.3562 52.6312C43.3564 52.631 43.3566 52.6309 43.3567 52.6306L45.6784 50.309C45.7774 50.2099 45.9389 50.2099 46.038 50.309L52.9576 57.2287C53.6996 57.9708 53.6996 59.1783 52.9576 59.9204C52.2136 60.6643 51.0097 60.6643 50.2657 59.9204ZM58.8425 18.5459V12.6389L65.8511 19.6475H59.9442C59.3366 19.6475 58.8425 19.1533 58.8425 18.5459Z" fill="#1E48AF"/>
<path d="M48.748 14.979H33.6486C32.7461 14.979 32.0117 15.7133 32.0117 16.6159V19.5329C32.0117 20.4355 32.7461 21.1698 33.6486 21.1698H48.748C49.6506 21.1698 50.385 20.4355 50.385 19.5329V16.6159C50.3849 15.7133 49.6505 14.979 48.748 14.979ZM48.8627 19.5328C48.8627 19.596 48.8113 19.6475 48.7479 19.6475H33.6486C33.5854 19.6475 33.5339 19.5961 33.5339 19.5328V16.6159C33.5339 16.5527 33.5853 16.5012 33.6486 16.5012H48.748C48.8114 16.5012 48.8628 16.5526 48.8628 16.6159V19.5328H48.8627Z" fill="#1E48AF"/>
<path d="M40.0559 47.018C44.63 42.4441 44.63 35.0016 40.0559 30.4276C35.4819 25.8536 28.0396 25.8536 23.4655 30.4276C21.6859 32.2073 20.5447 34.4591 20.1651 36.9398C20.1016 37.3553 20.3867 37.7436 20.8023 37.8072C21.218 37.871 21.6062 37.5855 21.6697 37.17C21.9999 35.012 22.993 33.0527 24.5418 31.5038C28.5223 27.5234 34.999 27.5234 38.9796 31.5038C42.7988 35.3231 42.9529 41.4401 39.4431 45.4455C39.1088 44.7653 38.5402 44.2114 37.7965 43.884C36.8949 43.4871 35.3406 43.2348 34.3845 43.1088L34.3805 42.1477C35.3044 41.4675 35.9602 40.4409 36.1486 39.2531C36.3111 39.1856 36.4602 39.0859 36.5878 38.9573C36.8427 38.7007 36.9816 38.3605 36.9793 37.9991C36.9725 36.9904 36.9734 35.3187 36.9734 34.3449C36.9734 33.4239 36.3024 32.6566 35.4236 32.5061C35.255 31.6498 34.4984 31.0019 33.5933 31.0019H29.9193C28.0253 31.0019 26.4844 32.5427 26.4844 34.4367V38.0133C26.4844 38.5685 26.8232 39.0461 27.305 39.2502C27.4892 40.4017 28.1124 41.4023 28.9923 42.0828L28.9968 43.1314C28.0418 43.2655 26.4897 43.5308 25.5913 43.9354C24.9081 44.2432 24.3742 44.7651 24.0456 45.4078C22.8288 44.0071 22.0232 42.3185 21.7037 40.4823C21.6316 40.0682 21.2375 39.7909 20.8234 39.8629C20.4093 39.935 20.132 40.3291 20.2041 40.7432C20.6193 43.1295 21.7471 45.2992 23.4656 47.0178C28.0597 51.6122 35.5022 51.572 40.0559 47.018ZM29.9193 32.5242H33.5933C33.7826 32.5242 33.9367 32.6782 33.9367 32.8676C33.9367 33.4929 34.4454 34.0017 35.0708 34.0017H35.108C35.2974 34.0017 35.4514 34.1557 35.4514 34.3451V34.7535L34.5315 34.6673C33.6303 34.5829 32.7086 34.7967 31.9366 35.2695C31.5131 35.5288 31.0268 35.6659 30.5302 35.6659H28.0066V34.437C28.0065 33.3822 28.8646 32.5242 29.9193 32.5242ZM28.0065 37.8508V37.1878H30.5301C31.3075 37.1878 32.0686 36.9732 32.7315 36.5673C33.2247 36.2651 33.8135 36.1285 34.3892 36.1825L35.4517 36.2822C35.4524 36.7509 35.4536 37.3694 35.4562 37.848C35.0325 37.9224 34.7028 38.2795 34.6769 38.7219C34.5863 40.2781 33.2914 41.497 31.7289 41.497C30.1697 41.497 28.8729 40.2791 28.7764 38.7242C28.7492 38.286 28.4245 37.9311 28.0065 37.8508ZM31.7289 43.0192C32.1197 43.0192 32.4992 42.9678 32.8615 42.8731L32.8633 43.2975C32.8641 43.4944 32.9093 43.6823 32.9892 43.8511C32.6108 44.1065 32.1626 44.2473 31.6926 44.2487C31.6903 44.2487 31.6879 44.2487 31.6856 44.2487C31.22 44.2487 30.7751 44.1116 30.398 43.8617C30.4765 43.6921 30.5206 43.5041 30.5198 43.3073L30.5178 42.8522C30.9037 42.9609 31.31 43.0192 31.7289 43.0192ZM25.2373 46.5754C25.3479 46.0186 25.7034 45.5545 26.2163 45.3233C26.734 45.0902 27.7313 44.8561 28.9873 44.6706C29.7047 45.3748 30.6655 45.7708 31.6853 45.7708H31.6969C32.7243 45.7677 33.6902 45.3632 34.4069 44.6478C35.6645 44.8227 36.6637 45.0483 37.1834 45.2772C37.7658 45.5335 38.1423 46.0218 38.2345 46.6169C34.4682 49.7104 28.9885 49.6963 25.2373 46.5754Z" fill="#1E48AF"/>
</svg>
