<svg width="81" height="88" viewBox="0 0 81 88" fill="none" xmlns="http://www.w3.org/2000/svg">
<path d="M78.16 53.72H80.16V51.72H78.16V53.72ZM63.28 53.72H61.28V55.72H63.28V53.72ZM63.28 36.8H65.28V34.8H63.28V36.8ZM48.64 36.8V34.8H46.64V36.8H48.64ZM48.64 53.72V55.72H50.64V53.72H48.64ZM21.16 53.72L19.5631 52.5159L17.147 55.72H21.16V53.72ZM60.16 1.99999L61.7569 3.20414L64.173 -5.72205e-06H60.16V1.99999ZM43.48 1.99999V-5.72205e-06H42.4919L41.8915 0.784832L43.48 1.99999ZM2.08 56.12L0.491484 54.9048L0.0800002 55.4427V56.12H2.08ZM2.08 66.92H0.0800002V68.92H2.08V66.92ZM48.16 66.92H50.16V64.92H48.16V66.92ZM48.16 86H46.16V88H48.16V86ZM63.28 86V88H65.28V86H63.28ZM63.28 66.92V64.92H61.28V66.92H63.28ZM78.16 66.92V68.92H80.16V66.92H78.16ZM78.16 51.72H63.28V55.72H78.16V51.72ZM65.28 53.72V36.8H61.28V53.72H65.28ZM63.28 34.8H48.64V38.8H63.28V34.8ZM46.64 36.8V53.72H50.64V36.8H46.64ZM48.64 51.72H21.16V55.72H48.64V51.72ZM22.7569 54.9241L61.7569 3.20414L58.5631 0.795849L19.5631 52.5159L22.7569 54.9241ZM60.16 -5.72205e-06H43.48V3.99999H60.16V-5.72205e-06ZM41.8915 0.784832L0.491484 54.9048L3.66852 57.3352L45.0685 3.21516L41.8915 0.784832ZM0.0800002 56.12V66.92H4.08V56.12H0.0800002ZM2.08 68.92H48.16V64.92H2.08V68.92ZM46.16 66.92V86H50.16V66.92H46.16ZM48.16 88H63.28V84H48.16V88ZM65.28 86V66.92H61.28V86H65.28ZM63.28 68.92H78.16V64.92H63.28V68.92ZM80.16 66.92V53.72H76.16V66.92H80.16Z" fill="#F47920" fill-opacity="0.4"/>
</svg>
