<svg width="42" height="46" viewBox="0 0 42 46" fill="none" xmlns="http://www.w3.org/2000/svg">
<path d="M21 45.5C32.3218 45.5 41.5 36.3218 41.5 25C41.5 13.6782 32.3218 4.5 21 4.5C9.67816 4.5 0.5 13.6782 0.5 25C0.5 36.3218 9.67816 45.5 21 45.5Z" fill="#3544A0" stroke="#3544A0"/>
<mask id="mask0" mask-type="alpha" maskUnits="userSpaceOnUse" x="-1" y="-2" width="44" height="45">
<path d="M21 41.25C26.9119 41.25 32.173 37.9373 35.9194 33.309C39.6667 28.6797 42 22.6187 42 16.8765C42 11.0848 39.6236 6.57451 35.7604 3.53573C31.9238 0.517864 26.6886 -1 21 -1C15.3114 -1 10.0762 0.517864 6.23961 3.53573C2.37645 6.57451 0 11.0848 0 16.8765C0 22.6187 2.33332 28.6797 6.0806 33.309C9.82703 37.9373 15.0881 41.25 21 41.25Z" fill="white" stroke="white" stroke-width="2"/>
</mask>
<g mask="url(#mask0)">
<ellipse cx="20.9996" cy="16.1725" rx="6.04651" ry="6.00919" fill="white"/>
<ellipse cx="21" cy="38.5" rx="13" ry="14.5" fill="white"/>
</g>
</svg>
