<svg width="291" height="395" viewBox="0 0 291 395" fill="none" xmlns="http://www.w3.org/2000/svg">
<path d="M14.5409 287.142L10.5535 271.415C3.48331 268.419 -3.75025 265.823 -11.1127 263.642L-11.6162 270.951L-13.6577 262.898C-22.7884 260.291 -29 259.143 -29 259.143C-29 259.143 -20.6095 291.049 -3.01117 315.442L17.4948 319.044L1.56424 321.341C3.77888 324.005 6.15889 326.527 8.69018 328.892C34.2908 352.655 62.8052 363.558 72.3787 353.244C81.9522 342.93 68.9597 315.305 43.359 291.542C35.4226 284.175 25.4527 278.264 15.4729 273.611L14.5409 287.142Z" fill="white"/>
<path d="M52.4648 270.063L57.1808 254.539C52.6772 248.319 47.8263 242.358 42.6514 236.685L38.4424 242.682L40.857 234.733C34.3884 227.782 29.6647 223.588 29.6647 223.588C29.6647 223.588 20.3548 255.238 22.8112 285.216L38.5033 298.899L23.6788 292.631C24.1976 296.056 24.9312 299.445 25.8755 302.779C35.5078 336.354 54.2818 360.426 67.8084 356.545C81.3351 352.665 84.4922 322.301 74.8599 288.726C71.8738 278.317 66.3949 268.103 60.2568 258.961L52.4648 270.063Z" fill="white"/>
<path d="M75.9585 185.391C75.9585 185.391 70.7881 247.56 69.678 260.882C68.9167 269.232 67.0502 277.445 64.1273 285.305C64.1273 285.305 61.907 289.745 61.907 294.186V350.803C61.907 350.803 57.4665 350.803 58.5766 355.243C59.6867 359.684 60.7969 367.455 60.7969 367.455H77.4489C77.4489 367.455 76.3388 364.124 79.6692 363.014C82.9996 361.904 79.6692 353.023 79.6692 353.023L97.4313 286.415L124.075 230.908C124.075 230.908 139.616 280.864 142.947 286.415C142.947 286.415 155.158 348.582 157.379 354.133C159.599 359.684 160.709 359.684 159.599 361.904C158.489 364.124 158.489 366.344 159.599 367.455C160.709 368.565 181.802 367.455 181.802 367.455L176.251 288.635L166.26 194.274L115.193 178.732L75.9585 185.391Z" fill="#2F2E41"/>
<path d="M73.0083 358.573C73.0083 358.573 67.4576 338.591 58.5765 354.133C49.6954 369.675 49.6954 375.226 49.6954 375.226C49.6954 375.226 35.2637 396.318 55.2461 394.098C75.2285 391.878 70.788 381.886 70.788 381.886C70.788 381.886 78.5589 377.446 78.5589 374.115C78.5589 370.785 73.0083 358.573 73.0083 358.573Z" fill="#2F2E41"/>
<path d="M162.93 356.354C162.93 356.354 168.48 336.371 177.361 351.913C186.242 367.455 186.242 373.006 186.242 373.006C186.242 373.006 200.674 394.098 180.692 391.878C160.709 389.658 165.15 379.666 165.15 379.666C165.15 379.666 157.379 375.226 157.379 371.895C157.379 368.565 162.93 356.354 162.93 356.354Z" fill="#2F2E41"/>
<path d="M110.751 35.5244C110.751 35.5244 112.971 49.9562 106.31 53.2866C99.6494 56.617 120.742 68.8285 126.293 68.8285C131.843 68.8285 141.835 57.7271 141.835 57.7271C141.835 57.7271 136.284 41.0751 137.394 37.7447L110.751 35.5244Z" fill="#A0616A"/>
<path d="M122.965 46.6257C135.84 46.6257 146.278 36.1881 146.278 23.3128C146.278 10.4375 135.84 0 122.965 0C110.09 0 99.6523 10.4375 99.6523 23.3128C99.6523 36.1881 110.09 46.6257 122.965 46.6257Z" fill="#FDFDFF"/>
<path d="M168.479 71.0486L140.726 54.2342C140.726 54.2342 124.936 72.1587 107.853 52.1763L78.558 59.9472L82.9986 135.436C82.9986 135.436 76.3378 165.41 78.558 170.961C80.7783 176.511 73.0074 178.732 75.2276 179.842C77.4479 180.952 75.2276 188.723 75.2276 188.723C75.2276 188.723 118.523 210.926 166.259 194.273L161.818 179.842C162.422 177.955 162.536 175.946 162.147 174.003C161.759 172.061 160.881 170.249 159.598 168.74C159.598 168.74 164.038 162.08 158.488 156.529C158.488 156.529 160.708 146.538 155.157 142.097L154.047 126.555L157.378 118.784L168.479 71.0486Z" fill="#CFCCE0"/>
<path d="M178.47 115.454L179.581 138.767C179.581 138.767 184.021 182.062 175.14 200.934V210.926C175.14 210.926 172.92 236.459 161.818 235.349C150.717 234.238 165.149 198.714 165.149 198.714L162.928 149.868L160.708 122.115L178.47 115.454Z" fill="#FDFDFF"/>
<path d="M156.269 72.1591L167.343 70.3599C175.32 78.0246 180.754 87.952 182.912 98.8023C186.242 116.564 187.352 119.895 187.352 119.895L160.709 126.556L146.277 98.8023L156.269 72.1591Z" fill="#CFCCE0"/>
<path d="M283.776 59.4897H108.586V146.516H283.776V59.4897Z" fill="white"/>
<path d="M127.717 64.7231C123.217 62.0165 117.79 62.2232 115.727 62.43C116.512 64.3481 118.87 69.2408 123.37 71.9487C127.882 74.6622 133.302 74.4493 135.362 74.2439C134.577 72.3264 132.219 67.4318 127.717 64.7231Z" fill="#6C63FF"/>
<path d="M148.865 118.431H120.735C119.903 118.43 119.079 118.594 118.31 118.911C117.542 119.229 116.843 119.695 116.255 120.283C115.666 120.871 115.199 121.569 114.881 122.337C114.562 123.105 114.398 123.929 114.398 124.761C114.398 125.593 114.562 126.416 114.881 127.184C115.199 127.953 115.666 128.651 116.255 129.239C116.843 129.827 117.542 130.293 118.31 130.61C119.079 130.928 119.903 131.091 120.735 131.09H148.865C149.697 131.091 150.521 130.928 151.289 130.61C152.058 130.293 152.757 129.827 153.345 129.239C153.934 128.651 154.4 127.953 154.719 127.184C155.037 126.416 155.201 125.593 155.201 124.761C155.201 123.929 155.037 123.105 154.719 122.337C154.4 121.569 153.934 120.871 153.345 120.283C152.757 119.695 152.058 119.229 151.289 118.911C150.521 118.594 149.697 118.43 148.865 118.431Z" fill="#6C63FF"/>
<path d="M276.248 51.6213H118.53C116.695 51.6213 114.878 51.9827 113.183 52.6848C111.488 53.3869 109.948 54.416 108.651 55.7133C107.353 57.0107 106.324 58.5508 105.622 60.2459C104.92 61.941 104.559 63.7577 104.559 65.5924V142.436C104.559 146.141 106.031 149.695 108.651 152.315C111.271 154.935 114.824 156.407 118.53 156.407H276.248C279.954 156.407 283.507 154.935 286.127 152.315C288.748 149.695 290.219 146.141 290.219 142.436V65.5924C290.219 63.7577 289.858 61.941 289.156 60.2459C288.454 58.5508 287.425 57.0107 286.127 55.7133C284.83 54.416 283.29 53.3869 281.595 52.6848C279.9 51.9827 278.083 51.6213 276.248 51.6213ZM114.627 61.1518C114.939 61.0954 122.324 59.8386 128.44 63.5184C134.555 67.1975 136.904 74.3118 137.001 74.6126L137.248 75.3797L136.455 75.5205C135.323 75.6972 134.178 75.7813 133.032 75.7719C129.397 75.8414 125.81 74.9372 122.642 73.1532C116.527 69.4748 114.178 62.3605 114.081 62.0597L113.834 61.2925L114.627 61.1518ZM148.864 132.496H120.734C118.682 132.496 116.714 131.681 115.264 130.231C113.813 128.78 112.998 126.812 112.998 124.76C112.998 122.709 113.813 120.741 115.264 119.29C116.714 117.84 118.682 117.025 120.734 117.025H148.864C150.916 117.025 152.883 117.84 154.334 119.29C155.785 120.741 156.6 122.709 156.6 124.76C156.6 126.812 155.785 128.78 154.334 130.231C152.883 131.681 150.916 132.496 148.864 132.496ZM276.858 131.09C276.851 133.326 275.96 135.469 274.379 137.05C272.797 138.631 270.655 139.522 268.418 139.529H247.321C245.084 139.522 242.942 138.631 241.36 137.05C239.779 135.469 238.888 133.326 238.881 131.09V118.431C238.888 116.195 239.779 114.052 241.36 112.471C242.942 110.89 245.084 109.999 247.321 109.992H268.418C270.655 109.999 272.797 110.89 274.379 112.471C275.96 114.052 276.851 116.195 276.858 118.431V131.09Z" fill="#3644A1"/>
<path d="M61.9078 102.133C61.9078 102.133 51.9166 144.318 64.128 144.318C76.3395 144.318 105.203 96.582 105.203 96.582C105.203 96.582 135.177 81.0401 122.965 75.4895C110.754 69.9388 95.2118 84.3705 95.2118 84.3705L77.2786 109.268L76.3395 96.582L61.9078 102.133Z" fill="#FDFDFF"/>
<path d="M85.2182 66.6083L78.5574 59.9475C78.5574 59.9475 65.2358 67.7185 64.1256 75.4894C63.0155 83.2603 57.4648 107.683 57.4648 107.683L78.0023 109.349L84.6631 99.3573L85.2182 66.6083Z" fill="#CFCCE0"/>
</svg>
