<svg width="76" height="66" viewBox="0 0 76 66" fill="none" xmlns="http://www.w3.org/2000/svg">
<circle cx="28.5998" cy="28.5998" r="28.5998" fill="#F47920" fill-opacity="0.5" style="mix-blend-mode:multiply"/>
<path d="M27.479 14.9031L48.2813 17.6898C48.3202 17.6945 48.3591 17.6972 48.398 17.6972C48.4369 17.6972 48.4758 17.6944 48.5147 17.6898L68.2959 15.0396V18.2648C67.7288 18.9196 66.4869 20.5535 66.4869 22.3417C66.4869 24.3862 68.1095 25.1283 69.2003 25.1283C70.291 25.1283 71.9136 24.3862 71.9136 22.3417C71.9136 20.5535 70.6718 18.9196 70.1047 18.2648V13.9817C70.1047 13.8591 70.0794 13.7429 70.0369 13.6352C70.0215 13.5971 69.9952 13.5674 69.9754 13.5321C69.9401 13.4671 69.9048 13.403 69.856 13.3491C69.8244 13.3147 69.7864 13.2915 69.7503 13.2637C69.6988 13.2209 69.6481 13.1801 69.5884 13.1503C69.5441 13.128 69.4971 13.1188 69.4492 13.1048C69.4048 13.0909 69.365 13.0667 69.3171 13.0602L48.5148 10.2735C48.437 10.2643 48.3592 10.2643 48.2814 10.2735L27.4791 13.0602C27.0287 13.1206 26.6914 13.5153 26.6914 13.9817C26.6912 14.448 27.0286 14.8428 27.479 14.9031ZM70.1046 22.3417C70.1046 23.083 69.6152 23.2566 69.2002 23.2705C68.785 23.2566 68.2958 23.0829 68.2958 22.3417C68.2958 21.5707 68.757 20.7105 69.2002 20.0761C69.6433 20.7106 70.1046 21.5708 70.1046 22.3417ZM48.3979 12.1314L62.2078 13.9817L48.3979 15.8321L34.588 13.9817L48.3979 12.1314Z" fill="#2656C9" style="mix-blend-mode:multiply"/>
<path d="M53.8236 38.1325C55.6506 38.1325 57.1511 36.729 57.3917 34.9186L60.6974 32.3735C61.0972 32.066 61.1786 31.4836 60.8783 31.073C60.5789 30.6624 60.0118 30.5779 59.612 30.8872L57.3067 32.6632C56.9621 31.5309 55.9436 30.7015 54.728 30.7015H51.1103C49.6143 30.7015 48.3969 31.9518 48.3969 33.4881C48.3969 31.9518 47.1795 30.7015 45.6836 30.7015H42.0659C40.8503 30.7015 39.8319 31.5309 39.4872 32.6632L37.1819 30.8872C36.783 30.5797 36.215 30.6633 35.9156 31.073C35.6153 31.4836 35.6967 32.066 36.0965 32.3735L39.4022 34.9186C39.6428 36.729 41.1424 38.1325 42.9703 38.1325H44.7792C46.7745 38.1325 48.3969 36.4661 48.3969 34.417C48.3969 36.4662 50.0195 38.1325 52.0147 38.1325H53.8236ZM46.588 34.417C46.588 35.4415 45.7758 36.2748 44.7791 36.2748H42.9702C41.9726 36.2748 41.1612 35.4416 41.1612 34.417V33.4881C41.1612 32.9763 41.5664 32.5593 42.0657 32.5593H45.6834C46.1826 32.5593 46.5878 32.9763 46.5878 33.4881V34.417H46.588ZM50.2059 34.417V33.4881C50.2059 32.9763 50.6111 32.5593 51.1103 32.5593H54.728C55.2272 32.5593 55.6324 32.9763 55.6324 33.4881V34.417C55.6324 35.4415 54.8212 36.2748 53.8235 36.2748H52.0146C51.0171 36.2747 50.2059 35.4415 50.2059 34.417Z" fill="#2656C9" style="mix-blend-mode:multiply"/>
<path d="M62.8337 57.4122C62.8166 57.3462 62.7894 57.2868 62.7595 57.2255C62.7424 57.193 62.7388 57.1558 62.7188 57.1243C62.7089 57.1103 62.6944 57.1029 62.6845 57.089C62.6465 57.0379 62.5995 56.9961 62.5506 56.9534C62.5072 56.9125 62.4647 56.8726 62.4132 56.8428C62.3978 56.8325 62.3888 56.8177 62.3715 56.8084L58.7537 54.9515C58.4625 54.802 58.117 54.8243 57.8475 55.0091L52.4199 58.7246C52.1685 58.8965 52.0175 59.1873 52.0175 59.4975V62.7913C51.4794 63.2335 50.158 64.1419 48.3997 64.1419C46.6586 64.1419 45.3246 63.2288 44.782 62.7885V59.4974C44.782 59.1872 44.6309 58.8964 44.3795 58.7245L38.9529 55.009C38.6833 54.8242 38.3378 54.8019 38.0466 54.9514L34.4289 56.8083C34.4126 56.8166 34.4036 56.8314 34.3891 56.8408C34.3349 56.8724 34.2896 56.9142 34.2435 56.9578C34.1983 56.9988 34.1531 57.0377 34.1178 57.0861C34.107 57.101 34.0907 57.1092 34.0807 57.1242C34.059 57.1576 34.0554 57.1957 34.0382 57.2309C34.0101 57.2895 33.983 57.3461 33.9668 57.4092C33.9523 57.4678 33.9487 57.5235 33.9451 57.583C33.9414 57.6415 33.9387 57.6981 33.946 57.7576C33.9532 57.8226 33.9741 57.882 33.9949 57.9434C34.0075 57.9805 34.0066 58.0196 34.0238 58.0549C34.032 58.0716 34.0473 58.0817 34.0563 58.0976C34.0862 58.1515 34.1269 58.197 34.1685 58.2444C34.2092 58.2909 34.2471 58.3372 34.2942 58.3745C34.3087 58.3856 34.3168 58.4023 34.3313 58.4126L39.758 62.1281C39.9126 62.234 40.0872 62.2842 40.259 62.2842C40.5511 62.2842 40.8387 62.1393 41.0123 61.8709C41.29 61.4436 41.1779 60.8667 40.7618 60.5825L36.6311 57.755L38.3858 56.854L42.9732 59.9945V63.2131C42.9732 63.4593 43.0681 63.6961 43.2381 63.8699C43.3231 63.9572 45.3473 65.9998 48.3998 65.9998C51.4523 65.9998 53.4765 63.9572 53.5615 63.8699C53.7307 63.6961 53.8265 63.4593 53.8265 63.2131V59.9945L58.4148 56.854L60.1685 57.7541L56.0379 60.5826C55.6219 60.8668 55.5097 61.4436 55.7873 61.871C55.9609 62.1394 56.2486 62.2843 56.5407 62.2843C56.7125 62.2843 56.8871 62.2341 57.0417 62.1282L62.4684 58.4127C62.4829 58.4024 62.4901 58.3866 62.5037 58.3764C62.5543 58.3374 62.5941 58.2891 62.6366 58.2399C62.6745 58.1934 62.7134 58.1516 62.7424 58.0996C62.7514 58.0828 62.7677 58.0727 62.7758 58.055C62.7948 58.0169 62.7948 57.976 62.8075 57.937C62.8265 57.8784 62.8464 57.8227 62.8536 57.7614C62.8618 57.6983 62.8591 57.6388 62.8546 57.5766C62.8509 57.5209 62.8481 57.4679 62.8337 57.4122Z" fill="#2656C9" style="mix-blend-mode:multiply"/>
<path d="M66.5548 54.2693C66.6969 54.6316 67.036 54.8527 67.395 54.8527C67.5072 54.8527 67.6203 54.8314 67.7306 54.7859C68.1946 54.5963 68.4197 54.0558 68.2353 53.5792C68.2172 53.5346 66.4906 49.0379 66.4906 44.635V37.2038C66.4906 29.2897 62.5409 27.1708 62.3727 27.0845C62.0932 26.9405 61.7594 26.9544 61.4936 27.1244C61.2268 27.2945 61.064 27.5926 61.064 27.9149V31.6305C61.064 35.1435 58.4466 42.3601 57.5413 44.2197C56.73 45.887 52.4374 51.1372 48.4019 51.1372C44.3663 51.1372 40.0737 45.8871 39.2615 44.2197C38.3571 42.36 35.7396 35.1435 35.7396 31.6305V27.9149C35.7396 27.5926 35.5768 27.2945 35.31 27.1244C35.0432 26.9544 34.7103 26.9405 34.4309 27.0845C34.2627 27.1709 30.313 29.2897 30.313 37.2038V44.635C30.313 49.0379 28.5865 53.5347 28.5683 53.5792C28.3838 54.0558 28.609 54.5963 29.0731 54.7859C29.5353 54.9754 30.0634 54.745 30.2488 54.2693C30.3248 54.0724 32.1219 49.4038 32.1219 44.6349V37.2037C32.1219 33.437 33.0779 31.2486 33.9308 30.0448V31.6304C33.9308 35.6172 36.7788 43.274 37.6435 45.05C38.7442 47.3109 43.5613 52.9949 48.4019 52.9949C53.2424 52.9949 58.0595 47.3109 59.1593 45.05C60.0248 43.274 62.873 35.6172 62.873 31.6304V30.0466C63.7277 31.2514 64.6819 33.439 64.6819 37.2037V44.6349C64.6817 49.4038 66.4788 54.0724 66.5548 54.2693Z" fill="#2656C9" style="mix-blend-mode:multiply"/>
<path d="M50.4879 43.9678C50.459 43.9947 49.777 44.6348 48.4032 44.6348C47.0493 44.6348 46.3672 44.0133 46.3203 43.9688C45.9685 43.6149 45.4014 43.6177 45.0504 43.9781C44.6967 44.3413 44.6967 44.9284 45.0504 45.2915C45.1698 45.4141 46.2804 46.4926 48.4032 46.4926C50.526 46.4926 51.6366 45.4142 51.756 45.2915C52.1051 44.9329 52.1041 44.359 51.7614 43.9947C51.4168 43.6307 50.8488 43.6205 50.4879 43.9678Z" fill="#2656C9" style="mix-blend-mode:multiply"/>
<path d="M75.4821 64.7761C75.4025 64.529 73.429 58.6965 65.7991 56.7376C65.3143 56.6112 64.8241 56.9159 64.703 57.4129C64.5818 57.9108 64.8766 58.4151 65.3614 58.5397C71.9883 60.2414 73.6986 65.159 73.7673 65.3633C73.893 65.7526 74.2458 65.9987 74.6248 65.9987C74.7188 65.9987 74.8157 65.9838 74.9106 65.9513C75.3845 65.7886 75.6405 65.2629 75.4821 64.7761Z" fill="#2656C9" style="mix-blend-mode:multiply"/>
<path d="M62.8719 24.1991V17.6969C62.8719 17.1842 62.4676 16.7681 61.9675 16.7681C61.4673 16.7681 61.0631 17.1842 61.0631 17.6969V23.5981C59.5671 24.2493 54.8332 26.0569 48.4008 26.0569C41.9684 26.0569 37.2344 24.2493 35.7385 23.5981V17.6969C35.7385 17.1842 35.3343 16.7681 34.8341 16.7681C34.3339 16.7681 33.9297 17.1842 33.9297 17.6969V24.1991C33.9297 24.5511 34.1232 24.8726 34.4299 25.0304C34.6595 25.1474 40.1424 27.9146 48.4008 27.9146C56.6592 27.9146 62.142 25.1474 62.3717 25.0304C62.6783 24.8726 62.8719 24.5511 62.8719 24.1991Z" fill="#2656C9" style="mix-blend-mode:multiply"/>
<path d="M30.9954 56.7376C23.3656 58.6966 21.392 64.5291 21.3124 64.7761C21.1542 65.2628 21.4102 65.7886 21.884 65.9512C21.979 65.9838 22.0749 65.9986 22.1699 65.9986C22.5488 65.9986 22.9015 65.7524 23.0273 65.3632C23.0445 65.3121 24.7567 60.2533 31.4333 58.5395C31.9181 58.4151 32.2129 57.9107 32.0917 57.4128C31.9704 56.9159 31.4793 56.6112 30.9954 56.7376Z" fill="#2656C9" style="mix-blend-mode:multiply"/>
</svg>
